<svg version="1.2" xmlns="http://www.w3.org/2000/svg" viewBox="0 0 309 330" width="100" height="107">
	<title>dame</title>
	<style>
		.s0 { fill: #ffffff;stroke: #000000;stroke-miterlimit:100;stroke-width: 14 } 
		.s1 { fill: #ffffff;stroke: #000000;stroke-miterlimit:100;stroke-width: 8 } 
	</style>
	<path id="Background copy" class="s0" d="m154.3 323c-81.5 0-147.3-70.6-147.3-158 0-87.4 65.8-158 147.3-158 81.4 0 147.2 70.6 147.2 158 0 87.4-65.8 158-147.2 158z"/>
	<path id="Background" class="s0" d="m154.3 301.5c-81.5 0-147.3-65.8-147.3-147.3 0-81.4 65.8-147.2 147.3-147.2 81.4 0 147.2 65.8 147.2 147.3 0 81.4-65.8 147.2-147.2 147.2z"/>
	<path id="Layer 1" class="s0" d="m154 282c-70.8 0-128-57.2-128-128 0-70.8 57.2-128 128-128 70.8 0 128 57.2 128 128 0 70.8-57.2 128-128 128z"/>
	<path id="Calque 1" fill-rule="evenodd" class="s1" d="m153.9 84c4.1 0 8 1.6 10.9 4.5 2.9 2.9 4.5 6.8 4.5 10.8 0 4.1-1.6 8-4.5 10.8-2.9 2.9-6.8 4.5-10.9 4.5-4 0-8-1.6-10.8-4.5-2.9-2.8-4.5-6.7-4.5-10.8 0-4 1.6-7.9 4.5-10.8 2.8-2.9 6.8-4.5 10.8-4.5zm-33.4 39.3c0.9-3.5 4.1-6.5 8.2-6.5 3.4 0 6.3 2 7.7 4.7 3.3 6.3 9.9 10.6 17.5 10.6 7.7 0 14.3-4.3 17.6-10.6 1.4-2.7 4.2-4.7 7.6-4.7 4.2 0 7.4 3 8.3 6.5 1.9 7.6 8.9 13.2 17.1 13.2 2.9 0 5.7-0.7 8.2-2 2.3-1.2 5.1-1.2 7.5 0.2 3.6 2.2 4.7 6.9 2.6 10.4l-29.4 48.3h-78.9l-29.4-48.3c-2.2-3.5-1-8.2 2.5-10.4 2.4-1.4 5.3-1.4 7.6-0.2 2.5 1.3 5.2 2 8.2 2 8.2 0 15.1-5.6 17.1-13.2zm-6.1 78.8h79.1l11.4 11.3c1.1 1.2 1.8 2.8 1.8 4.4 0 3.4-2.8 6.2-6.2 6.2h-93.1c-3.4 0-6.2-2.8-6.2-6.2 0-1.6 0.7-3.2 1.8-4.4z"/>
</svg>