<svg version="1.2" xmlns="http://www.w3.org/2000/svg" viewBox="0 0 309 330" width="100" height="107">
	<title>pion</title>
	<style>
		.s0 { fill: #ffffff;stroke: #000000;stroke-miterlimit:100;stroke-width: 14 } 
	</style>
	<path id="Background copy" class="s0" d="m154.3 323c-81.5 0-147.3-70.6-147.3-158 0-87.4 65.8-158 147.3-158 81.4 0 147.2 70.6 147.2 158 0 87.4-65.8 158-147.2 158z"/>
	<path id="Background" class="s0" d="m154.3 301.5c-81.5 0-147.3-65.8-147.3-147.3 0-81.4 65.8-147.2 147.3-147.2 81.4 0 147.2 65.8 147.2 147.3 0 81.4-65.8 147.2-147.2 147.2z"/>
	<path id="Layer 1" class="s0" d="m154 282c-70.8 0-128-57.2-128-128 0-70.8 57.2-128 128-128 70.8 0 128 57.2 128 128 0 70.8-57.2 128-128 128z"/>
</svg>